<?xml version="1.0" encoding="utf-8"?>
<svg version="1.0" width="2560.000000pt" height="2560.000000pt" viewBox="681.3 1142.442 1125.686 553.244" preserveAspectRatio="xMidYMid meet" xmlns="http://www.w3.org/2000/svg">
  <g transform="matrix(0.1, 0, 0, -0.1, -92.514503, 2647.556641)" fill="#000000" stroke="none">
    <path d="M18020 14794 c-129 -18 -240 -36 -246 -38 -8 -3 -13 -116 -18 -378 -3 -205 -8 -456 -11 -558 -10 -378 -15 -624 -20 -960 -3 -190 -8 -385 -10 -434 l-5 -89 43 6 c23 3 73 9 111 13 l68 7 -3 -137 c-3 -86 0 -136 6 -136 29 -1 341 44 348 50 4 3 16 83 27 176 53 438 193 1632 216 1824 13 118 33 287 44 374 11 88 18 161 15 164 -2 2 -71 -5 -152 -17 -81 -12 -154 -21 -161 -21 -14 0 -14 8 5 148 4 32 2 42 -8 41 -8 -1 -120 -16 -249 -35z m515 -201 c-3 -21 -17 -135 -31 -253 -27 -236 -100 -855 -194 -1645 -33 -280 -63 -512 -68 -516 -7 -7 -220 -39 -255 -39 -17 0 -18 9 -16 93 1 50 8 112 15 137 8 25 32 205 54 400 23 195 54 465 70 600 16 135 54 461 85 725 31 264 61 484 66 490 5 5 62 17 127 26 167 24 153 25 147 -18z"/>
    <path d="M15440 14463 c-302 -29 -505 -176 -645 -466 -33 -71 -78 -228 -90 -317 -10 -84 -145 -2083 -145 -2161 0 -139 62 -304 145 -383 16 -15 53 -43 80 -61 28 -18 57 -46 65 -61 25 -51 98 -131 148 -162 74 -48 157 -66 282 -59 148 8 234 43 359 147 l60 50 16 -50 c11 -33 22 -50 33 -50 34 0 327 43 333 49 4 3 17 164 29 356 13 193 27 354 32 359 4 6 8 -1 8 -16 0 -41 45 -163 80 -218 35 -54 85 -98 143 -126 26 -12 46 -34 66 -69 32 -57 115 -136 171 -165 55 -28 151 -50 216 -50 85 0 235 34 312 70 189 88 342 285 407 524 27 98 39 121 31 61 -3 -22 -8 -85 -11 -139 l-6 -99 58 6 c32 4 82 10 112 13 l54 7 -7 -141 -6 -142 27 6 c16 2 137 20 271 38 134 19 246 37 249 40 5 5 18 181 37 489 l7 97 -26 0 c-22 0 -179 -21 -261 -35 l-31 -5 5 95 c2 52 1 95 -4 95 -5 0 -107 -14 -227 -31 -120 -17 -220 -30 -222 -27 -2 2 0 58 5 123 4 66 11 167 15 225 3 58 17 267 31 465 21 306 23 373 13 450 -27 215 -113 360 -251 425 -33 16 -78 32 -99 35 -30 5 -47 17 -71 46 -21 26 -58 53 -107 77 -69 34 -82 37 -180 40 -239 9 -408 -70 -545 -252 -61 -81 -87 -129 -128 -236 l-29 -75 6 75 c15 214 17 410 6 488 -12 78 -56 207 -90 262 -62 101 -160 177 -269 210 -50 15 -77 30 -107 61 -54 54 -146 97 -237 109 -40 5 -75 9 -78 8 -3 -1 -21 -3 -40 -5z m536 -252 c103 -59 176 -164 226 -323 21 -65 23 -90 21 -233 -1 -88 -8 -245 -15 -350 l-13 -190 -180 -26 c-99 -15 -206 -30 -239 -33 l-58 -7 7 113 c4 62 9 115 11 117 2 2 45 10 96 18 51 7 96 17 99 21 9 10 39 435 39 547 -1 113 -20 222 -54 302 -14 34 -26 65 -26 68 0 13 40 2 86 -24z m-531 -257 c56 -60 65 -182 22 -304 -24 -67 -29 -107 -47 -370 -39 -575 -29 -516 -88 -524 -26 -4 -59 -9 -73 -12 l-26 -5 -12 -200 c-7 -110 -11 -203 -8 -205 2 -3 33 0 68 5 34 6 65 9 67 6 9 -9 -50 -778 -61 -797 -21 -34 -75 -60 -127 -61 -57 -1 -76 12 -101 68 -26 56 -24 136 11 636 37 521 39 560 45 629 3 30 19 249 35 485 16 237 35 456 41 488 14 70 57 140 101 167 50 30 122 27 153 -6z m1953 -373 c69 -35 117 -86 155 -164 49 -100 67 -184 68 -313 1 -182 -79 -1306 -100 -1415 -81 -403 -352 -640 -720 -627 -85 3 -104 7 -163 36 -60 29 -168 127 -168 151 0 5 31 6 69 3 106 -7 251 23 352 74 106 53 231 189 294 319 49 103 91 263 100 380 72 1036 86 1282 76 1359 -8 70 -32 161 -56 218 -6 15 -3 16 22 9 16 -5 48 -18 71 -30z m-499 -195 c52 -55 63 -194 25 -315 -9 -29 -31 -280 -59 -670 -49 -683 -46 -662 -115 -708 -22 -16 -47 -23 -79 -23 -69 1 -94 27 -110 117 -8 40 29 665 53 908 3 28 13 154 21 280 20 289 42 366 118 414 46 30 117 28 146 -3z m-1213 -168 c-3 -29 -8 -92 -12 -139 -6 -86 -6 -87 18 -83 92 16 522 73 525 71 6 -7 -24 -367 -31 -374 -4 -5 -73 -17 -153 -29 l-146 -21 7 94 c6 85 5 93 -11 93 -10 0 -115 -13 -233 -30 -118 -16 -217 -30 -219 -30 -2 0 -1 35 3 78 3 42 11 147 17 232 6 85 13 157 16 160 6 7 138 27 186 29 l38 1 -5 -52z m469 -640 c-5 -45 -25 -343 -98 -1418 l-12 -185 -120 -17 c-168 -25 -165 -26 -186 51 -10 35 -20 65 -22 68 -3 2 -30 -23 -62 -56 -113 -118 -226 -173 -387 -186 -150 -13 -264 38 -351 157 l-29 38 74 0 c168 1 298 54 422 175 l75 73 23 -69 c14 -46 27 -69 37 -69 9 0 73 7 144 17 119 16 127 18 127 39 0 12 18 289 40 615 22 327 43 637 46 690 l7 97 101 15 c56 8 118 15 139 16 l37 1 -5 -52z m2151 -890 c-14 -222 -27 -393 -31 -396 -4 -5 -412 -62 -439 -62 -17 0 -18 7 -11 113 4 61 9 113 10 115 2 2 42 9 89 16 47 7 89 15 92 18 3 3 10 63 15 134 5 70 11 129 12 130 4 3 212 31 241 33 l28 1 -6 -102z"/>
    <path d="M12210 13978 c-113 -16 -207 -32 -210 -34 -6 -7 -41 -496 -35 -502 2 -2 35 0 72 6 37 5 69 9 70 8 5 -4 -166 -539 -174 -546 -8 -8 -144 -32 -149 -27 -2 1 6 137 18 300 11 164 18 300 15 303 -3 3 -69 -4 -147 -15 -78 -12 -147 -21 -154 -21 -9 0 -11 23 -8 90 4 88 4 90 -18 90 -44 0 -405 -52 -413 -60 -4 -4 -12 -76 -17 -161 -23 -361 -30 -437 -44 -442 -6 -3 -53 -10 -104 -17 -50 -7 -96 -18 -100 -24 -5 -6 -15 -90 -21 -186 -7 -96 -15 -177 -17 -179 -2 -3 -17 10 -32 27 -37 43 -133 98 -195 112 -40 8 -60 20 -93 55 -128 133 -374 153 -601 49 -171 -77 -328 -293 -389 -533 -19 -76 -30 -167 -49 -436 -13 -187 -27 -369 -30 -405 -42 -498 -44 -666 -11 -795 13 -49 21 -93 17 -96 -7 -7 -161 -29 -199 -29 -23 0 -23 0 -16 90 l7 90 -24 0 c-13 0 -82 -9 -154 -20 -71 -10 -131 -18 -132 -16 -3 2 110 1649 122 1786 2 30 7 93 10 140 5 84 10 147 20 285 3 39 7 102 10 140 12 187 16 244 21 288 6 57 15 55 -171 27 -71 -11 -133 -20 -138 -20 -4 0 -4 43 -1 96 l7 96 -44 -7 c-24 -3 -129 -19 -234 -33 -183 -27 -190 -28 -197 -52 -4 -14 -43 -554 -88 -1200 -44 -646 -94 -1383 -112 -1637 -18 -254 -29 -465 -26 -469 7 -6 162 12 201 23 18 5 19 -2 12 -136 -7 -131 -6 -141 10 -141 24 0 1169 161 1173 165 3 3 29 338 32 399 0 4 15 -3 33 -16 17 -14 51 -35 75 -48 26 -15 49 -38 59 -58 25 -53 111 -141 164 -168 134 -67 312 -71 492 -10 155 52 313 202 405 382 28 55 68 185 83 264 13 76 37 410 29 415 -3 1 -61 -6 -130 -16 -69 -10 -137 -19 -153 -19 l-27 0 6 83 c4 45 8 84 10 86 1 2 69 12 151 23 81 11 151 23 155 27 9 8 11 34 38 441 12 168 20 340 19 383 -2 95 -26 202 -62 281 -15 33 -25 61 -22 64 9 9 180 31 186 24 4 -4 -2 -126 -12 -272 -10 -146 -25 -371 -34 -500 -9 -129 -18 -260 -20 -290 -29 -393 -29 -551 0 -666 35 -137 114 -247 201 -280 33 -12 46 -25 60 -57 33 -72 87 -130 155 -167 57 -30 73 -34 165 -38 72 -3 124 0 180 12 108 23 204 57 213 76 5 8 13 103 20 210 6 107 14 209 17 227 4 29 1 34 -36 53 -38 20 -43 20 -92 5 -28 -8 -67 -15 -85 -15 -30 0 -36 5 -50 38 -11 24 -16 67 -16 127 -1 111 84 1357 92 1367 3 3 71 16 150 27 80 12 146 22 147 24 1 1 8 79 14 172 7 94 14 177 16 185 1 8 3 32 3 53 1 32 4 37 24 37 33 0 51 18 75 75 42 102 123 268 127 263 3 -3 -34 -128 -81 -279 -96 -303 -103 -331 -83 -325 8 2 73 12 145 21 73 10 136 20 141 24 5 3 35 65 67 136 32 72 97 216 144 320 l86 190 20 277 c11 153 17 281 13 284 -6 6 -226 -19 -285 -33 -23 -5 -23 -5 -16 78 4 46 7 89 8 94 2 17 -42 14 -254 -17z m510 -175 c0 -10 -7 -124 -16 -253 l-17 -235 -53 -120 c-29 -66 -93 -208 -141 -315 l-89 -195 -107 -16 c-59 -9 -110 -13 -112 -9 -4 7 13 66 129 430 l53 165 -24 5 c-23 5 -22 6 31 121 53 115 53 118 63 253 6 75 13 139 16 143 5 4 136 25 260 42 4 1 7 -7 7 -16z m-954 -377 c6 -16 -14 -347 -21 -355 -11 -10 -251 -39 -259 -31 -9 9 9 348 19 358 4 5 194 36 243 41 7 0 15 -5 18 -13z m-2761 -218 c-3 -46 -8 -108 -10 -138 -3 -30 -7 -93 -10 -140 -3 -47 -7 -114 -10 -150 -3 -36 -7 -101 -10 -145 -6 -85 -13 -182 -20 -280 -3 -33 -7 -100 -10 -150 -3 -49 -8 -115 -10 -145 -3 -30 -7 -93 -10 -140 -3 -47 -7 -114 -10 -150 -3 -36 -7 -101 -10 -145 -5 -82 -12 -173 -20 -280 -2 -33 -7 -98 -10 -145 -3 -47 -7 -114 -10 -150 -9 -127 -14 -196 -20 -295 -4 -55 -10 -103 -13 -106 -6 -6 -228 -39 -259 -39 -7 0 -10 16 -8 43 7 82 15 196 45 632 16 242 32 469 35 505 2 36 18 263 35 505 16 242 32 467 34 500 3 33 10 143 17 245 6 102 15 192 20 200 5 10 43 20 116 31 172 26 156 33 148 -63z m3027 -361 c7 -20 -26 -375 -35 -384 -5 -4 -72 -17 -150 -28 l-142 -20 -6 -60 c-4 -33 -9 -105 -13 -160 -7 -120 -24 -373 -31 -470 -3 -38 -10 -135 -15 -215 -26 -402 -31 -466 -35 -477 -5 -16 -98 -43 -146 -43 -79 0 -116 100 -106 280 6 101 28 414 47 685 5 72 17 247 26 390 10 143 21 263 26 266 4 3 68 13 142 23 73 10 138 21 144 25 6 4 14 44 18 90 4 45 12 85 18 87 48 18 253 27 258 11z m-1414 -217 c69 -35 120 -87 158 -161 64 -128 79 -243 64 -484 -30 -475 -39 -588 -47 -595 -4 -4 -165 -29 -358 -55 -192 -27 -355 -53 -361 -59 -7 -7 -19 -103 -29 -241 -18 -244 -25 -274 -73 -298 -82 -42 -140 -28 -174 41 -21 42 -23 61 -23 182 1 118 16 354 31 476 l5 41 360 51 c198 27 363 53 366 56 8 8 52 635 53 749 0 97 -20 213 -50 282 -18 43 -18 45 -1 45 10 0 45 -14 79 -30z m-494 -196 c34 -34 46 -81 46 -177 0 -55 -6 -92 -19 -125 -24 -58 -41 -139 -41 -196 0 -24 -6 -48 -12 -53 -7 -6 -53 -15 -103 -22 -49 -7 -108 -15 -129 -18 l-39 -6 6 69 c4 38 9 103 12 144 15 188 43 298 93 354 54 61 141 75 186 30z m651 -1426 c-19 -319 -78 -503 -214 -665 -112 -133 -226 -197 -410 -229 -76 -12 -109 -14 -173 -5 -77 10 -163 44 -203 79 -32 27 -85 92 -85 102 0 6 39 10 90 10 223 0 391 76 526 239 99 120 166 279 194 461 6 41 13 77 16 80 6 6 195 37 237 39 l29 1 -7 -112z m986 -209 c41 7 87 15 103 18 l29 6 -7 -94 c-4 -52 -11 -150 -16 -218 -6 -83 -13 -127 -22 -133 -7 -4 -51 -20 -98 -35 -73 -23 -102 -27 -205 -27 -102 0 -127 3 -167 21 -55 26 -111 79 -139 134 l-19 39 57 0 c130 0 308 46 322 84 5 11 12 76 16 144 l7 123 33 -38 32 -37 74 13z m-2328 -321 c2 -7 3 -29 1 -48 -1 -19 -8 -114 -14 -210 -7 -96 -13 -176 -13 -176 -5 -4 -1099 -156 -1101 -153 -3 5 13 232 16 234 2 1 187 27 413 59 225 31 411 59 413 61 2 2 6 49 9 105 4 60 11 103 17 106 17 6 188 32 222 33 18 0 34 -5 37 -11z"/>
    <path d="M13220 13309 c-365 -54 -600 -365 -603 -799 -1 -105 2 -137 22 -200 47 -153 87 -207 337 -458 155 -155 188 -194 219 -254 24 -49 35 -84 35 -115 0 -62 -19 -179 -36 -217 l-13 -31 -1 48 c0 26 -3 47 -7 47 -5 0 -69 -9 -143 -19 -74 -11 -138 -17 -142 -15 -4 3 -8 45 -8 95 0 49 -3 89 -7 89 -31 -1 -406 -60 -410 -64 -10 -10 -6 -201 6 -266 12 -66 39 -149 65 -199 26 -50 108 -132 156 -156 36 -18 55 -37 77 -77 77 -136 232 -218 414 -218 233 0 440 104 586 295 119 156 195 415 180 618 -7 104 -36 198 -95 312 -43 81 -66 109 -253 300 -239 245 -265 284 -263 397 1 37 11 98 23 137 25 83 56 114 110 109 54 -5 63 -31 57 -155 -5 -101 -4 -103 17 -103 12 1 126 15 252 33 l230 33 -1 174 c-1 154 -3 183 -23 240 -49 141 -147 232 -281 261 -41 9 -60 20 -93 56 -88 96 -223 130 -407 102z m604 -243 c115 -67 170 -215 164 -441 l-3 -110 -185 -27 c-257 -37 -228 -45 -233 65 -2 50 -6 101 -8 112 -4 17 5 20 79 31 46 7 87 15 90 19 4 3 6 61 5 128 -1 108 -14 197 -39 262 -5 13 -1 13 40 1 25 -8 66 -26 90 -40z m-566 -162 c40 -28 54 -70 53 -165 0 -81 2 -89 19 -89 19 0 19 -1 0 -43 -24 -54 -44 -178 -37 -230 3 -22 20 -69 38 -106 27 -56 62 -95 219 -251 229 -227 270 -284 327 -454 24 -71 27 -97 27 -206 1 -252 -76 -451 -239 -615 -132 -133 -283 -196 -475 -196 -177 0 -301 57 -373 171 l-16 25 127 1 c148 1 234 21 334 77 226 127 370 384 385 687 6 142 -9 225 -67 347 -56 119 -92 164 -298 370 -153 152 -184 188 -213 248 -30 62 -34 78 -32 145 3 124 51 245 112 284 33 20 80 20 109 0z m-121 -1679 c-3 -62 -17 -79 -78 -90 -52 -10 -102 15 -134 65 -15 23 -24 45 -20 48 8 9 137 29 192 31 l42 1 -2 -55z"/>
  </g>
</svg>